<svg width="20" height="20" viewBox="0 0 20 20" fill="none" xmlns="http://www.w3.org/2000/svg">
<path d="M15.5447 4.91332C14.5074 4.43716 13.4126 4.09761 12.2879 3.90318C12.2777 3.90128 12.2672 3.90264 12.2578 3.90708C12.2484 3.91152 12.2406 3.91881 12.2356 3.92792C12.0949 4.17812 11.9391 4.50445 11.8301 4.76092C10.6003 4.57678 9.37674 4.57678 8.1722 4.76092C8.06314 4.49872 7.90167 4.17812 7.7604 3.92792C7.75517 3.91902 7.74738 3.91191 7.73804 3.90751C7.72871 3.90311 7.71826 3.90162 7.70807 3.90325C6.58326 4.09723 5.48846 4.43674 4.45127 4.91325C4.4424 4.91704 4.43492 4.92349 4.42987 4.93172C2.3556 8.03065 1.78734 11.0534 2.06614 14.0386C2.06692 14.046 2.06917 14.053 2.07274 14.0595C2.07632 14.0659 2.08114 14.0715 2.08694 14.076C3.45547 15.0811 4.78114 15.6912 6.0822 16.0956C6.09232 16.0987 6.10312 16.0985 6.11315 16.0952C6.12318 16.0919 6.13197 16.0857 6.13834 16.0772C6.44607 15.657 6.7204 15.2138 6.95567 14.7478C6.9589 14.7414 6.96075 14.7344 6.96109 14.7273C6.96142 14.7201 6.96024 14.713 6.95762 14.7063C6.955 14.6997 6.951 14.6936 6.94589 14.6886C6.94077 14.6836 6.93465 14.6798 6.92794 14.6773C6.49274 14.5122 6.0784 14.311 5.6798 14.0824C5.67253 14.0782 5.66643 14.0722 5.66202 14.065C5.65762 14.0578 5.65506 14.0496 5.65456 14.0412C5.65405 14.0328 5.65563 14.0244 5.65915 14.0168C5.66267 14.0091 5.66802 14.0024 5.67474 13.9973C5.7586 13.9344 5.84254 13.8691 5.9226 13.803C5.92972 13.7972 5.93833 13.7934 5.94747 13.7922C5.95661 13.7909 5.96592 13.7923 5.97434 13.796C8.59287 14.9916 11.4277 14.9916 14.0153 13.796C14.0237 13.792 14.0331 13.7905 14.0424 13.7916C14.0516 13.7927 14.0604 13.7965 14.0676 13.8024C14.1477 13.8684 14.2316 13.9344 14.3161 13.9973C14.3229 14.0024 14.3282 14.009 14.3318 14.0166C14.3354 14.0242 14.337 14.0326 14.3366 14.041C14.3361 14.0494 14.3337 14.0576 14.3293 14.0648C14.325 14.072 14.3189 14.0781 14.3117 14.0824C13.913 14.3153 13.4953 14.5141 13.0631 14.6766C13.0564 14.6792 13.0503 14.6832 13.0452 14.6883C13.0401 14.6933 13.0362 14.6994 13.0336 14.7061C13.031 14.7129 13.0299 14.72 13.0303 14.7272C13.0307 14.7344 13.0326 14.7414 13.0359 14.7478C13.2762 15.2131 13.5505 15.6563 13.8526 16.0766C13.8588 16.0853 13.8675 16.0918 13.8776 16.0952C13.8877 16.0986 13.8986 16.0988 13.9087 16.0956C15.2161 15.6912 16.5417 15.081 17.9103 14.076C17.9162 14.0717 17.9211 14.0662 17.9247 14.0599C17.9283 14.0536 17.9305 14.0465 17.9311 14.0392C18.2647 10.5879 17.3723 7.58998 15.5655 4.93232C15.561 4.92368 15.5537 4.91698 15.5447 4.91332ZM7.34667 12.2209C6.55834 12.2209 5.90874 11.4971 5.90874 10.6082C5.90874 9.71945 6.54574 8.99565 7.34674 8.99565C8.15394 8.99565 8.7972 9.72578 8.7846 10.6083C8.7846 11.4971 8.1476 12.2209 7.34667 12.2209ZM12.6632 12.2209C11.8749 12.2209 11.2253 11.4971 11.2253 10.6082C11.2253 9.71945 11.8622 8.99565 12.6632 8.99565C13.4704 8.99565 14.1137 9.72578 14.1011 10.6083C14.1011 11.4971 13.4704 12.2209 12.6632 12.2209Z" fill="black"/>
</svg>
