<svg width="20" height="20" viewBox="0 0 20 20" fill="none" xmlns="http://www.w3.org/2000/svg">
<path d="M10 2.19727C5.58 2.19727 2 5.77927 2 10.1973C2 13.7326 4.292 16.7306 7.47 17.7873C7.87 17.8626 8.01667 17.6153 8.01667 17.4026C8.01667 17.2126 8.01 16.7093 8.00667 16.0426C5.78133 16.5253 5.312 14.9693 5.312 14.9693C4.948 14.0459 4.422 13.7993 4.422 13.7993C3.69733 13.3033 4.478 13.3133 4.478 13.3133C5.28133 13.3693 5.70333 14.1373 5.70333 14.1373C6.41667 15.3606 7.576 15.0073 8.03333 14.8026C8.10533 14.2853 8.31133 13.9326 8.54 13.7326C6.76333 13.5326 4.896 12.8446 4.896 9.77927C4.896 8.90593 5.206 8.1926 5.71933 7.6326C5.62933 7.4306 5.35933 6.61727 5.78933 5.51527C5.78933 5.51527 6.45933 5.3006 7.98933 6.33527C8.62933 6.15727 9.30933 6.06927 9.98933 6.06527C10.6693 6.06927 11.3493 6.15727 11.9893 6.33527C13.5093 5.3006 14.1793 5.51527 14.1793 5.51527C14.6093 6.61727 14.3393 7.4306 14.2593 7.6326C14.7693 8.1926 15.0793 8.90593 15.0793 9.77927C15.0793 12.8526 13.2093 13.5293 11.4293 13.7259C11.7093 13.9659 11.9693 14.4566 11.9693 15.2059C11.9693 16.2766 11.9593 17.1366 11.9593 17.3966C11.9593 17.6066 12.0993 17.8566 12.5093 17.7766C15.71 16.7273 18 13.7273 18 10.1973C18 5.77927 14.418 2.19727 10 2.19727Z" fill="black"/>
</svg>
